<svg xmlns="http://www.w3.org/2000/svg" width="21.594" height="15.086" viewBox="0 0 21.594 15.086">
  <g id="Group_14910" data-name="Group 14910" transform="translate(-21.406 -237.268)">
    <path id="Path_20952" data-name="Path 20952" d="M368.274,150.287l3.339,2.35a.646.646,0,0,0,.908-.59v-7.781a.646.646,0,0,0-.908-.59l-3.339,2.35a.646.646,0,0,0-.274.528v3.205a.646.646,0,0,0,.274.528Z" transform="translate(-330.521 96.654)" fill="none" stroke="#fff" stroke-linecap="round" stroke-linejoin="round" stroke-width="2"/>
    <path id="Path_20953" data-name="Path 20953" d="M42.045,141.086H34.213A2.474,2.474,0,0,1,32,138.428v-7.77A2.474,2.474,0,0,1,34.213,128h7.852a2.451,2.451,0,0,1,2.193,2.633v7.794A2.474,2.474,0,0,1,42.045,141.086Z" transform="translate(-9.594 110.268)" fill="none" stroke="#fff" stroke-miterlimit="10" stroke-width="2"/>
  </g>
</svg>
